<?xml version="1.0" encoding="utf-8"?>
<!-- Generator: Adobe Illustrator 23.0.6, SVG Export Plug-In . SVG Version: 6.00 Build 0)  -->
<svg version="1.1" xmlns="http://www.w3.org/2000/svg" xmlns:xlink="http://www.w3.org/1999/xlink" x="0px" y="0px"
	 viewBox="0 0 1920 1080" style="enable-background:new 0 0 1920 1080;" xml:space="preserve">
<style type="text/css">
	.st0{fill:#A560EB;}
	.st1{fill:#CA94FF;stroke:#CA94FF;stroke-miterlimit:10;}
	.st2{fill:#FFFFFF;}
	.st3{font-family:'MuseoSansRounded-300';}
	.st4{font-size:89px;}
	.st5{fill:#4C4C4C;}
	.st6{fill:#8549BA;}
	.st7{fill:#3D3D3D;}
	.st8{fill:#7242A5;}
	.st9{display:none;}
	.st10{display:inline;fill:#353535;}
	.st11{fill:#353535;}
	.st12{fill:#4C4C4C;stroke:#4C4C4C;stroke-miterlimit:10;}
	.st13{fill:#686868;stroke:#686868;stroke-miterlimit:10;}
	.st14{fill:#3D3D3D;stroke:#3D3D3D;stroke-miterlimit:10;}
	.st15{fill:#303030;stroke:#303030;stroke-miterlimit:10;}
	.st16{fill:#777777;stroke:#777777;stroke-miterlimit:10;}
	.st17{fill:#FFF277;stroke:#FFF277;stroke-miterlimit:10;}
	.st18{fill:#FFC300;stroke:#FFC300;stroke-miterlimit:10;}
	.st19{fill:#4C4C4C;stroke:#4C4C4C;stroke-width:9;stroke-miterlimit:10;}
	.st20{fill:#CCCCCC;stroke:#CCCCCC;stroke-width:9;stroke-miterlimit:10;}
</style>
<g id="Layer_2">
	<g>
		<rect x="0.5" y="1.5" class="st0" width="1919" height="1079"/>
		<path class="st0" d="M1919,2v1078H1V2H1919 M1920,1H0v1080h1920V1L1920,1z"/>
	</g>
	<polygon class="st1" points="89.39,0.5 2.5,0.5 2.5,1080.5 1235.94,1080.5 	"/>
	<text transform="matrix(1 0 0 1 64.1123 439.8765)"><tspan x="0" y="0" class="st2 st3 st4">Enhance Your Wine</tspan><tspan x="0" y="106.8" class="st2 st3 st4">Knowledge</tspan></text>
</g>
<g id="Hat">
	<g>
		<path class="st5" d="M1678.34,940.72c-54.37-7.5-109.36-16.11-163.43-25.6c-49.85-8.74-100.22-18.45-149.73-28.86
			c14.45-44.71,25.93-90.78,34.12-136.96c8.58-48.4,13.72-97.9,15.29-147.12l313.15,54.45c-15.21,47.43-27.12,96.33-35.4,145.35
			C1684.63,847.66,1679.92,894.33,1678.34,940.72z"/>
		<path class="st5" d="M1415.07,602.77l168.58,29.31l143.44,24.94c-15.13,47.28-26.99,96.01-35.24,144.87
			c-7.69,45.52-12.39,92.03-13.99,138.25c-54.19-7.48-108.98-16.07-162.86-25.52c-49.65-8.71-99.84-18.38-149.17-28.74
			c14.38-44.56,25.8-90.48,33.96-136.5C1408.35,701.15,1413.49,651.83,1415.07,602.77 M1414.11,601.59
			c-1.37,43.81-5.71,93.53-15.3,147.63c-9.11,51.39-21.31,97.4-34.27,137.42c48.12,10.12,98.25,19.85,150.29,28.98
			c56.6,9.92,111.33,18.41,164,25.67c1.4-41.72,5.45-88.54,14.01-139.23c9.24-54.73,21.98-103.56,35.56-145.83
			C1623.63,638.02,1518.87,619.8,1414.11,601.59L1414.11,601.59z"/>
	</g>
	<g>
		<path class="st5" d="M1605.88,961.61c-27.31,0-58.94-2.99-91.47-8.65c-86.45-15.03-153.79-44.5-150.11-65.69
			c2.16-12.4,29.07-19.81,72-19.81c27.31,0,58.95,2.99,91.47,8.65c41.97,7.3,80.72,18.2,109.12,30.7
			c27.79,12.23,42.73,24.99,40.99,34.98C1675.72,954.2,1648.8,961.61,1605.88,961.61z"/>
		<path class="st5" d="M1436.31,867.97c27.28,0,58.88,2.99,91.38,8.64c41.93,7.29,80.64,18.18,109,30.67
			c27.56,12.13,42.39,24.69,40.7,34.44c-2.11,12.14-28.84,19.39-71.51,19.39c-27.29,0-58.89-2.99-91.38-8.64
			c-41.93-7.29-80.64-18.18-109-30.67c-27.56-12.13-42.39-24.69-40.7-34.44C1366.91,875.22,1393.64,867.97,1436.31,867.97
			L1436.31,867.97 M1436.3,866.97c-41.71,0-70.2,7.05-72.49,20.22c-3.74,21.49,63.65,51.16,150.51,66.27
			c33.62,5.85,65.22,8.65,91.56,8.65c41.71,0,70.2-7.05,72.49-20.22c3.74-21.49-63.65-51.16-150.51-66.27
			C1494.24,869.77,1462.63,866.97,1436.3,866.97L1436.3,866.97z"/>
	</g>
	<g>
		<path class="st6" d="M1633.83,787.31c-30.45,0-62.4-2.87-94.96-8.53c-51.22-8.91-98.67-23.8-137.26-43.09
			c7.2-44.04,11.56-88.95,12.98-133.51l313.15,54.46c-13.21,41.17-23.95,83.59-31.95,126.08
			C1676.9,785.76,1656.05,787.31,1633.83,787.31C1633.83,787.31,1633.83,787.31,1633.83,787.31z"/>
		<path class="st6" d="M1415.07,602.77l312.02,54.26c-13.1,40.92-23.77,83.04-31.73,125.24c-18.78,3.01-39.47,4.54-61.54,4.54
			c-30.42,0-62.34-2.87-94.87-8.52c-51.03-8.87-98.31-23.7-136.79-42.88C1409.3,691.65,1413.64,647.04,1415.07,602.77
			 M1414.11,601.59c-1.25,40.2-5.02,85.4-13.05,134.38c37.1,18.59,84.73,34.08,137.73,43.3c33.33,5.8,65.51,8.54,95.04,8.54
			c22.55,0,43.57-1.6,62.39-4.66c8.85-47.12,20.18-89.58,32.18-126.91C1623.63,638.02,1518.87,619.8,1414.11,601.59L1414.11,601.59z
			"/>
	</g>
	<g>
		<path class="st7" d="M1605.88,961.6c-1.79,0-3.61-0.01-5.46-0.04c1.65-45.63,6.32-91.52,13.9-136.42
			c8.3-49.16,20.26-98.2,35.54-145.76l0.18-0.55l-237.19-41.25c0.79-11.88,1.37-23.79,1.74-35.42l313.15,54.46
			c-15.21,47.43-27.12,96.33-35.4,145.35c-7.71,45.68-12.42,92.35-14,138.74l-0.34-0.05l-0.07,0.65c-0.02,0.16-0.03,0.32-0.06,0.48
			C1675.72,954.2,1648.81,961.6,1605.88,961.6z"/>
		<path class="st7" d="M1415.07,602.77l272.6,47.4l39.42,6.85c-15.13,47.28-26.99,96.01-35.24,144.87
			c-7.69,45.52-12.39,92.03-13.99,138.25l-0.3-0.04l-0.11,1.02l-0.01,0.14c-0.02,0.15-0.03,0.3-0.06,0.44
			c-2.11,12.14-28.84,19.39-71.51,19.39c-1.62,0-3.27-0.01-4.93-0.03c1.66-45.44,6.33-91.14,13.88-135.84
			c8.3-49.14,20.25-98.16,35.52-145.69l0.35-1.09l-1.13-0.2l-236.19-41.07C1414.14,625.64,1414.71,614.07,1415.07,602.77
			 M1414.11,601.59c-0.37,11.72-0.95,23.88-1.79,36.43c79.02,13.74,158.05,27.48,237.07,41.22c-13.58,42.26-26.31,91.1-35.56,145.83
			c-8.41,49.78-12.46,95.83-13.93,136.99c2.02,0.03,4.01,0.05,5.97,0.05c41.72,0,70.2-7.04,72.49-20.22
			c0.04-0.21,0.06-0.43,0.08-0.65c0.13,0.02,0.25,0.04,0.38,0.05c1.4-41.72,5.45-88.54,14.01-139.23
			c9.24-54.73,21.98-103.56,35.56-145.83C1623.63,638.02,1518.87,619.8,1414.11,601.59L1414.11,601.59z"/>
	</g>
	<g>
		<path class="st8" d="M1633.85,787.3c-4.07,0-8.22-0.05-12.37-0.16c7.52-36.28,17.07-72.53,28.38-107.75l0.18-0.55l-237.2-41.25
			c0.79-11.87,1.37-23.78,1.74-35.42l313.15,54.45c-13.21,41.18-23.95,83.59-31.95,126.08
			C1676.92,785.76,1656.08,787.3,1633.85,787.3C1633.85,787.3,1633.85,787.3,1633.85,787.3z"/>
		<path class="st8" d="M1415.07,602.77l312.02,54.26c-13.1,40.92-23.77,83.04-31.73,125.24c-18.75,3.01-39.44,4.53-61.51,4.53
			c-3.87,0-7.82-0.05-11.76-0.14c7.49-36.06,17-72.1,28.25-107.11l0.35-1.09l-1.13-0.2l-105.88-18.41l-130.31-22.66
			C1414.14,625.65,1414.7,614.08,1415.07,602.77 M1414.11,601.59c-0.37,11.72-0.95,23.88-1.79,36.43
			c79.02,13.74,158.05,27.48,237.07,41.22c-10.4,32.37-20.3,68.61-28.52,108.39c4.38,0.12,8.71,0.17,12.98,0.17
			c22.55,0,43.55-1.59,62.36-4.65c8.85-47.12,20.18-89.58,32.18-126.91C1623.63,638.02,1518.87,619.8,1414.11,601.59L1414.11,601.59
			z"/>
	</g>
	<g class="st9">
		<path class="st10" d="M1316.56,581.87c-30.46,0-62.42-2.87-94.98-8.53c-62.18-10.81-118.96-30.55-159.89-55.56
			c-40.8-24.94-60.93-52.1-56.69-76.49c6.31-36.28,66.55-59.73,153.46-59.73c30.46,0,62.42,2.87,94.98,8.53
			c128.21,22.29,225.36,81.53,216.58,132.06C1463.71,558.42,1403.47,581.87,1316.56,581.87z"/>
		<path class="st10" d="M1158.46,382.05c30.43,0,62.35,2.87,94.89,8.53c62.12,10.8,118.84,30.51,159.72,55.5
			c19.82,12.12,34.81,24.8,44.57,37.71c10,13.24,14,26.11,11.89,38.27c-6.27,36.03-66.31,59.31-152.97,59.31
			c-30.43,0-62.36-2.87-94.9-8.53c-127.94-22.25-224.91-81.23-216.17-131.48C1011.75,405.33,1071.8,382.05,1158.46,382.05
			L1158.46,382.05 M1158.45,381.05c-84.49,0-147.4,22.45-153.95,60.14c-8.85,50.88,88.3,110.26,216.99,132.63
			c33.34,5.8,65.52,8.54,95.07,8.54c84.49,0,147.4-22.45,153.95-60.14c8.85-50.88-88.3-110.26-216.99-132.63
			C1220.18,383.79,1188,381.05,1158.45,381.05L1158.45,381.05z"/>
	</g>
	<g>
		<path class="st5" d="M1660.55,707.66c-30.46,0-62.42-2.87-94.98-8.53c-62.18-10.81-118.96-30.54-159.89-55.56
			c-40.8-24.94-60.93-52.1-56.69-76.49c6.31-36.28,66.55-59.73,153.46-59.73c30.46,0,62.42,2.87,94.98,8.53
			c128.21,22.29,225.36,81.53,216.58,132.06C1807.7,684.21,1747.47,707.66,1660.55,707.66z"/>
		<path class="st5" d="M1502.45,507.84c30.43,0,62.35,2.87,94.89,8.53c62.12,10.8,118.84,30.51,159.72,55.5
			c19.82,12.12,34.81,24.8,44.57,37.71c10,13.24,14,26.11,11.89,38.27c-6.27,36.03-66.31,59.31-152.97,59.31
			c-30.43,0-62.36-2.87-94.9-8.53c-127.94-22.25-224.91-81.23-216.17-131.48C1355.75,531.12,1415.79,507.84,1502.45,507.84
			L1502.45,507.84 M1502.45,506.84c-84.49,0-147.4,22.45-153.95,60.14c-8.85,50.88,88.3,110.26,216.99,132.63
			c33.34,5.8,65.52,8.54,95.07,8.54c84.49,0,147.4-22.45,153.95-60.14c8.85-50.88-88.3-110.26-216.99-132.63
			C1564.18,509.58,1532,506.84,1502.45,506.84L1502.45,506.84z"/>
	</g>
	<g>
		<path class="st11" d="M1613.12,667.22c-14.7,0-29.97-1.36-45.4-4.04c-68.71-11.95-120.22-46.86-114.84-77.83
			c2-11.51,11.64-21.24,27.87-28.15c15.97-6.79,37.1-10.38,61.1-10.38c14.7,0,29.97,1.36,45.4,4.04
			c33.35,5.8,63.67,17.13,85.38,31.89c21.6,14.69,32.06,31,29.46,45.93c-2,11.51-11.64,21.24-27.87,28.15
			C1658.26,663.63,1637.13,667.22,1613.12,667.22z"/>
		<path class="st11" d="M1541.87,547.32c14.67,0,29.91,1.36,45.31,4.03c68.44,11.9,119.77,46.55,114.43,77.25
			c-1.97,11.33-11.51,20.94-27.58,27.77c-15.91,6.77-36.97,10.34-60.9,10.34c-14.67,0-29.92-1.36-45.31-4.03
			c-33.28-5.79-63.53-17.09-85.18-31.82c-21.42-14.57-31.81-30.71-29.25-45.43c1.97-11.33,11.51-20.94,27.58-27.77
			C1496.86,550.9,1517.92,547.32,1541.87,547.32L1541.87,547.32 M1541.86,546.32c-48.36,0-85.27,14.81-89.47,38.95
			c-5.44,31.29,46.16,66.39,115.25,78.4c15.8,2.75,31.14,4.05,45.48,4.05c48.36,0,85.27-14.81,89.47-38.95
			c5.44-31.29-46.16-66.39-115.25-78.4C1571.54,547.63,1556.2,546.32,1541.86,546.32L1541.86,546.32z"/>
	</g>
	<path class="st12" d="M1691.5,673.5"/>
	<path class="st12" d="M1919.5,784.5"/>
</g>
<g id="Bottle">
	
		<ellipse transform="matrix(0.1945 -0.9809 0.9809 0.1945 1003.2346 1863.8444)" class="st13" cx="1636.49" cy="321.07" rx="8" ry="21.5"/>
	
		<rect x="1603.71" y="319.96" transform="matrix(0.9809 0.1945 -0.1945 0.9809 104.5607 -308.9084)" class="st13" width="43" height="116"/>
	<path class="st14" d="M1675.97,475.37c6.37-33.69-18.63-66.9-56.1-74.33c-37.47-7.43-73.26,13.73-80.22,47.3l-0.01,0l-35.69,179.97
		l136.35,27.04l35.59-179.47c0,0,0,0,0,0s0,0,0,0l0.1-0.49L1675.97,475.37z"/>
	<path class="st15" d="M1620.57,401.04c-9.64-1.93-19.15-1.92-28.09-0.26c21.59,14.18,33.83,38.75,29.18,63.59l0.01,0l-0.1,0.49
		c0,0,0,0,0,0s0,0,0,0l-35.18,179.47l-80.38-16.13l-0.02,0.09l134.76,27.04l35.18-179.47c0,0,0,0,0,0s0,0,0,0l0.1-0.49l-0.01,0
		C1682.32,441.68,1657.61,408.47,1620.57,401.04z"/>
	<path class="st16" d="M1662.17,545.02l-136.34-27.04l-5.83,29.42l0,0l-9.51,47.94l-4.74,23.93h0l-4.64,23.42
		c18.6,9.19,41.41,16.61,66.54,20.98c25.44,4.42,49.7,5.1,70.48,2.62l18.55-93.53l0,0L1662.17,545.02z"/>
	<path class="st13" d="M1608.04,534.28l-4.37,26.46l-17.43,105.52c18.62,1.96,36.24,1.89,51.89,0.02l18.55-93.53l5.5-27.74
		L1608.04,534.28z"/>
	<polygon class="st17" points="1444.81,153.47 1424,133.04 1395.38,138.6 1408.38,112.5 1394.24,86.99 1423.08,91.29 1442.97,69.96 
		1447.8,98.72 1474.23,111.05 1448.37,124.52 	"/>
	<g>
		<polygon class="st18" points="1446.8,96.72 1447.52,97.06 1442.97,69.96 1442.41,70.57 		"/>
		<polygon class="st18" points="1471.67,109.85 1447.37,122.52 1443.81,151.47 1423,131.04 1396.59,136.17 1395.38,138.6 
			1424,133.04 1444.81,153.47 1448.37,124.52 1474.23,111.05 		"/>
		<polygon class="st18" points="1407.38,110.5 1394.36,87.01 1394.24,86.99 1407.32,110.6 		"/>
	</g>
	<polygon class="st17" points="1696.1,195.04 1675.29,174.61 1646.67,180.17 1659.66,154.07 1645.53,128.56 1674.37,132.86 
		1694.26,111.53 1699.09,140.29 1725.52,152.61 1699.66,166.09 	"/>
	<g>
		<polygon class="st18" points="1698.09,138.29 1698.81,138.63 1694.26,111.53 1693.7,112.14 		"/>
		<polygon class="st18" points="1722.96,151.42 1698.66,164.09 1695.1,193.04 1674.29,172.61 1647.88,177.74 1646.67,180.17 
			1675.29,174.61 1696.1,195.04 1699.66,166.09 1725.52,152.61 		"/>
		<polygon class="st18" points="1658.66,152.07 1645.65,128.58 1645.53,128.56 1658.61,152.17 		"/>
	</g>
	<polygon class="st17" points="1421.4,355.02 1392.25,354.33 1375.15,377.94 1366.8,350 1339.06,341.04 1363.05,324.47 1363,295.31 
		1386.18,313.01 1413.89,303.95 1404.22,331.46 	"/>
	<g>
		<polygon class="st18" points="1384.08,312.23 1384.84,311.98 1363,295.31 1363,296.13 		"/>
		<polygon class="st18" points="1411.22,304.83 1402.13,330.68 1419.3,354.25 1390.15,353.55 1374.37,375.34 1375.15,377.95 
			1392.25,354.33 1421.4,355.02 1404.22,331.46 1413.89,303.95 		"/>
		<polygon class="st18" points="1364.71,349.23 1339.15,340.97 1339.06,341.04 1364.74,349.34 		"/>
	</g>
</g>
<g id="Wand">
	<path class="st19" d="M1243.94,168.32l-400.2,97.91c-3.22,0.79-6.47-1.18-7.25-4.4l-0.83-3.4c-0.79-3.22,1.18-6.47,4.4-7.25
		l400.2-97.91c3.22-0.79,6.47,1.18,7.25,4.4l0.83,3.4C1249.13,164.29,1247.16,167.54,1243.94,168.32z"/>
	<path class="st20" d="M1240.26,153.27l-56.82,13.9l3.68,15.06l56.82-13.9c3.22-0.79,5.19-4.04,4.4-7.25l-0.83-3.4
		C1246.72,154.45,1243.48,152.48,1240.26,153.27z"/>
</g>
</svg>
