<?xml version="1.0" encoding="utf-8"?>
<!-- Generator: Adobe Illustrator 23.0.6, SVG Export Plug-In . SVG Version: 6.00 Build 0)  -->
<svg version="1.1" id="Layer_1" xmlns="http://www.w3.org/2000/svg" xmlns:xlink="http://www.w3.org/1999/xlink" x="0px" y="0px"
	 viewBox="0 0 500 126.39" style="enable-background:new 0 0 500 126.39;" xml:space="preserve">
<style type="text/css">
	.st0{fill:#CA94FF;stroke:#A560EB;stroke-width:8;stroke-miterlimit:10;}
	.st1{fill:#A560EB;}
</style>
<g>
	<path class="st0" d="M43.13,28.63c0-3.08,1.5-4.62,4.51-4.62h4.95c3.08,0,4.62,1.54,4.62,4.62v45.32c0,5.28,1.56,9.35,4.67,12.21
		c3.12,2.86,7.31,4.29,12.6,4.29c5.28,0,9.5-1.43,12.65-4.29c3.15-2.86,4.73-6.93,4.73-12.21V28.63c0-3.08,1.5-4.62,4.51-4.62h5.06
		c3.01,0,4.51,1.54,4.51,4.62v45.43c0,4.4-0.75,8.4-2.26,11.99c-1.5,3.59-3.63,6.67-6.38,9.24c-2.75,2.57-6.05,4.57-9.9,6
		s-8.12,2.14-12.81,2.14c-4.77,0-9.08-0.71-12.93-2.14c-3.85-1.43-7.15-3.43-9.9-6c-2.75-2.57-4.88-5.65-6.38-9.24
		c-1.5-3.59-2.25-7.59-2.25-11.99V28.63z"/>
</g>
<g>
	<path class="st1" d="M129.79,98.16c-0.49-0.45-0.82-0.95-1.01-1.49c-0.18-0.55,0.03-1.23,0.64-2.04l1.34-1.95
		c0.49-0.69,1.01-1.07,1.56-1.13c0.55-0.06,1.21,0.13,1.98,0.58c0.37,0.24,0.82,0.55,1.37,0.92c0.55,0.37,1.2,0.71,1.95,1.04
		c0.75,0.33,1.59,0.61,2.5,0.85c0.92,0.24,1.9,0.37,2.96,0.37c2.03,0,3.62-0.46,4.76-1.37c1.14-0.92,1.71-2.1,1.71-3.57
		c0-1.38-0.5-2.52-1.49-3.42c-1-0.89-2.25-1.71-3.75-2.44c-1.5-0.73-3.12-1.46-4.85-2.2c-1.73-0.73-3.35-1.61-4.85-2.62
		c-1.5-1.02-2.76-2.27-3.75-3.75c-1-1.48-1.49-3.34-1.49-5.58c0-1.91,0.38-3.64,1.13-5.18c0.75-1.54,1.78-2.87,3.08-3.96
		c1.3-1.1,2.84-1.94,4.61-2.53c1.77-0.59,3.69-0.88,5.76-0.88c1.26,0,2.47,0.11,3.63,0.34c1.16,0.22,2.22,0.5,3.17,0.82
		c0.96,0.33,1.81,0.68,2.56,1.07c0.75,0.39,1.35,0.74,1.8,1.07c1.3,0.94,1.56,2.09,0.79,3.48l-1.1,2.01
		c-0.45,0.89-0.98,1.34-1.59,1.34c-0.61,0-1.24-0.16-1.89-0.49c-0.89-0.53-1.94-1.06-3.14-1.59c-1.2-0.53-2.65-0.79-4.36-0.79
		c-2.03,0-3.64,0.45-4.82,1.34c-1.18,0.9-1.77,2.07-1.77,3.54c0,1.34,0.5,2.45,1.49,3.32c1,0.88,2.25,1.66,3.75,2.35
		c1.5,0.69,3.12,1.39,4.85,2.1c1.73,0.71,3.34,1.58,4.85,2.59c1.5,1.02,2.75,2.28,3.75,3.78c1,1.5,1.49,3.4,1.49,5.67
		c0,1.75-0.33,3.41-0.98,4.97c-0.65,1.57-1.59,2.93-2.81,4.09c-1.22,1.16-2.71,2.07-4.48,2.75c-1.77,0.67-3.79,1.01-6.07,1.01
		c-1.55,0-3.01-0.15-4.39-0.46c-1.38-0.3-2.64-0.68-3.78-1.13c-1.14-0.45-2.15-0.92-3.02-1.43
		C131.01,99.03,130.31,98.57,129.79,98.16z"/>
	<path class="st1" d="M162.24,79.86c0-3.09,0.55-5.98,1.65-8.66c1.1-2.68,2.64-5.02,4.64-7.02c1.99-1.99,4.35-3.56,7.08-4.7
		c2.72-1.14,5.73-1.71,9.03-1.71s6.3,0.57,9.03,1.71c2.72,1.14,5.08,2.71,7.08,4.7c1.99,1.99,3.54,4.33,4.64,7.02
		c1.1,2.68,1.65,5.57,1.65,8.66c0,3.17-0.55,6.14-1.65,8.91c-1.1,2.77-2.64,5.17-4.64,7.23s-4.35,3.66-7.08,4.82
		c-2.73,1.16-5.73,1.74-9.03,1.74s-6.3-0.58-9.03-1.74c-2.72-1.16-5.08-2.76-7.08-4.82s-3.54-4.46-4.64-7.23
		S162.24,83.03,162.24,79.86z M170.35,79.86c0,2.2,0.36,4.24,1.07,6.13c0.71,1.89,1.7,3.53,2.96,4.91c1.26,1.38,2.76,2.47,4.51,3.26
		c1.75,0.79,3.66,1.19,5.73,1.19s3.99-0.4,5.73-1.19s3.25-1.88,4.51-3.26c1.26-1.38,2.25-3.02,2.96-4.91
		c0.71-1.89,1.07-3.93,1.07-6.13c0-2.11-0.36-4.08-1.07-5.89c-0.71-1.81-1.7-3.39-2.96-4.73c-1.26-1.34-2.77-2.39-4.51-3.14
		c-1.75-0.75-3.66-1.13-5.73-1.13s-3.99,0.38-5.73,1.13c-1.75,0.75-3.25,1.8-4.51,3.14c-1.26,1.34-2.25,2.92-2.96,4.73
		C170.71,75.78,170.35,77.75,170.35,79.86z"/>
	<path class="st1" d="M216.16,60.95c0.2-1.63,1.08-2.44,2.62-2.44h3.84c1.42,0,2.38,0.69,2.87,2.07l7.75,19.34
		c0.24,0.65,0.5,1.34,0.76,2.07c0.26,0.73,0.5,1.42,0.7,2.07l0.73,2.2h0.12c0.2-0.73,0.43-1.46,0.67-2.2
		c0.2-0.65,0.44-1.34,0.7-2.07c0.26-0.73,0.52-1.42,0.76-2.07l7.75-19.34c0.49-1.38,1.46-2.07,2.93-2.07h3.78
		c1.63,0,2.5,0.81,2.62,2.44l3.11,38.25c0.12,1.75-0.69,2.62-2.44,2.62h-2.75c-1.63,0-2.5-0.81-2.62-2.44l-1.65-21.78
		c-0.08-0.69-0.12-1.43-0.12-2.23s0-1.54,0-2.23c0-0.77,0.02-1.53,0.06-2.26h-0.12c-0.29,0.85-0.55,1.67-0.79,2.44
		c-0.24,0.69-0.5,1.42-0.76,2.2s-0.52,1.46-0.76,2.07l-6.28,14.76c-0.49,1.34-1.44,2.01-2.87,2.01h-2.56
		c-1.46,0-2.44-0.67-2.93-2.01l-6.22-14.76c-0.24-0.61-0.51-1.31-0.79-2.1c-0.29-0.79-0.55-1.54-0.79-2.23
		c-0.29-0.81-0.55-1.63-0.79-2.44h-0.12c0.04,0.77,0.06,1.55,0.06,2.32c0,0.69-0.01,1.43-0.03,2.23c-0.02,0.79-0.05,1.54-0.09,2.23
		l-1.65,21.78c-0.12,1.63-1,2.44-2.62,2.44h-2.75c-1.75,0-2.56-0.87-2.44-2.62L216.16,60.95z"/>
	<path class="st1" d="M268.19,60.95c0.2-1.63,1.08-2.44,2.62-2.44h3.84c1.42,0,2.38,0.69,2.87,2.07l7.75,19.34
		c0.24,0.65,0.5,1.34,0.76,2.07c0.26,0.73,0.5,1.42,0.7,2.07l0.73,2.2h0.12c0.2-0.73,0.43-1.46,0.67-2.2
		c0.2-0.65,0.44-1.34,0.7-2.07c0.26-0.73,0.52-1.42,0.76-2.07l7.75-19.34c0.49-1.38,1.46-2.07,2.93-2.07h3.78
		c1.63,0,2.5,0.81,2.62,2.44l3.11,38.25c0.12,1.75-0.69,2.62-2.44,2.62h-2.75c-1.63,0-2.5-0.81-2.62-2.44l-1.65-21.78
		c-0.08-0.69-0.12-1.43-0.12-2.23s0-1.54,0-2.23c0-0.77,0.02-1.53,0.06-2.26h-0.12c-0.29,0.85-0.55,1.67-0.79,2.44
		c-0.24,0.69-0.5,1.42-0.76,2.2s-0.52,1.46-0.76,2.07l-6.28,14.76c-0.49,1.34-1.44,2.01-2.87,2.01h-2.56
		c-1.46,0-2.44-0.67-2.93-2.01L277.1,77.6c-0.24-0.61-0.51-1.31-0.79-2.1c-0.29-0.79-0.55-1.54-0.79-2.23
		c-0.29-0.81-0.55-1.63-0.79-2.44h-0.12c0.04,0.77,0.06,1.55,0.06,2.32c0,0.69-0.01,1.43-0.03,2.23c-0.02,0.79-0.05,1.54-0.09,2.23
		l-1.65,21.78c-0.12,1.63-1,2.44-2.62,2.44h-2.75c-1.75,0-2.56-0.87-2.44-2.62L268.19,60.95z"/>
	<path class="st1" d="M318.52,61.07c0-1.71,0.83-2.56,2.5-2.56h20.86c1.71,0,2.56,0.85,2.56,2.54v1.69c0,1.65-0.85,2.48-2.56,2.48
		h-15.56v11.47h12.08c1.71,0,2.56,0.83,2.56,2.48v1.69c0,1.69-0.85,2.54-2.56,2.54h-12.08v11.71h16.53c1.71,0,2.56,0.83,2.56,2.48
		v1.69c0,1.69-0.85,2.54-2.56,2.54h-21.84c-1.67,0-2.5-0.85-2.5-2.56V61.07z"/>
	<path class="st1" d="M352.5,61.07c0-1.71,0.83-2.56,2.5-2.56h2.81c1.67,0,2.5,0.86,2.5,2.57v34.03h16.17
		c1.71,0,2.56,0.83,2.56,2.48v1.69c0,1.69-0.85,2.54-2.56,2.54H355c-1.67,0-2.5-0.85-2.5-2.56V61.07z"/>
	<path class="st1" d="M384.28,61.07c0-1.71,0.83-2.56,2.5-2.56h2.81c1.67,0,2.5,0.85,2.5,2.56v38.19c0,1.71-0.83,2.56-2.5,2.56
		h-2.81c-1.67,0-2.5-0.85-2.5-2.56V61.07z"/>
	<path class="st1" d="M402.09,61.07c0-1.71,0.83-2.56,2.5-2.56h20.86c1.71,0,2.56,0.85,2.56,2.54v1.69c0,1.65-0.85,2.48-2.56,2.48
		h-15.56v11.47h12.08c1.71,0,2.56,0.83,2.56,2.48v1.69c0,1.69-0.85,2.54-2.56,2.54h-12.08v11.71h16.53c1.71,0,2.56,0.83,2.56,2.48
		v1.69c0,1.69-0.85,2.54-2.56,2.54h-21.84c-1.67,0-2.5-0.85-2.5-2.56V61.07z"/>
	<path class="st1" d="M436.06,61.07c0-1.71,0.83-2.56,2.5-2.56h11.71c2.16,0,3.83,0.09,5.03,0.27c1.2,0.18,2.27,0.48,3.2,0.88
		c2.2,0.94,3.95,2.41,5.28,4.42c1.32,2.01,1.98,4.48,1.98,7.41c0,1.3-0.16,2.56-0.49,3.78s-0.79,2.35-1.4,3.39
		c-0.61,1.04-1.36,1.96-2.26,2.78c-0.89,0.81-1.91,1.44-3.05,1.89v0.12l0.37,0.55c0.12,0.2,0.27,0.44,0.46,0.7
		c0.18,0.26,0.38,0.6,0.58,1.01l7.14,13.05c0.53,0.89,0.62,1.63,0.27,2.2s-1.03,0.85-2.04,0.85h-3.29c-1.34,0-2.34-0.59-2.99-1.77
		l-7.62-14.4h-7.56v13.6c0,1.71-0.83,2.56-2.5,2.56h-2.81c-1.67,0-2.5-0.85-2.5-2.56V61.07z M450.95,78.82c2.11,0,3.78-0.61,5-1.84
		c1.22-1.23,1.83-2.92,1.83-5.09c0-1.39-0.27-2.6-0.82-3.64s-1.41-1.81-2.59-2.3c-0.53-0.24-1.15-0.43-1.86-0.55
		c-0.71-0.12-1.66-0.18-2.84-0.18h-5.8v13.6H450.95z"/>
</g>
</svg>
